<svg width="240" height="240" viewBox="0 0 240 240" fill="none" xmlns="http://www.w3.org/2000/svg">
<path d="M120 8C134.708 8 149.272 10.897 162.861 16.5255C176.449 22.154 188.796 30.4039 199.196 40.804C209.596 51.2042 217.846 63.551 223.475 77.1395C229.103 90.7279 232 105.292 232 120C232 134.708 229.103 149.272 223.474 162.861C217.846 176.449 209.596 188.796 199.196 199.196C188.796 209.596 176.449 217.846 162.861 223.475C149.272 229.103 134.708 232 120 232C105.292 232 90.7279 229.103 77.1394 223.474C63.551 217.846 51.2042 209.596 40.804 199.196C30.4038 188.796 22.154 176.449 16.5255 162.86C10.897 149.272 7.99999 134.708 8 120C8.00001 105.292 10.897 90.7279 16.5255 77.1394C22.1541 63.5509 30.4039 51.2042 40.8041 40.804C51.2043 30.4038 63.551 22.154 77.1395 16.5255C90.728 10.8969 105.292 7.99999 120 8L120 8Z" stroke="#F2F4F7" stroke-width="16" stroke-linecap="round" stroke-linejoin="round"/>
<path d="M120 8C145.635 8 170.494 16.7939 190.427 32.9134C210.359 49.0329 224.159 71.5024 229.522 96.5701C234.885 121.638 231.486 147.787 219.893 170.65C208.3 193.514 189.214 211.709 165.823 222.197C142.432 232.685 116.15 234.832 91.3674 228.278C66.5843 221.725 44.7994 206.868 29.65 186.188C14.5006 165.509 6.90372 140.258 8.12775 114.652C9.35178 89.0465 19.3226 64.6356 36.3755 45.4953" stroke="#6941C6" stroke-width="16" stroke-linecap="round" stroke-linejoin="round"/>
<path d="M120 28C132.082 28 144.045 30.3797 155.207 35.0031C166.369 39.6265 176.511 46.4032 185.054 54.9462C193.597 63.4892 200.373 73.6312 204.997 84.7931C209.62 95.9551 212 107.918 212 120C212 132.082 209.62 144.045 204.997 155.207C200.373 166.369 193.597 176.511 185.054 185.054C176.511 193.597 166.369 200.373 155.207 204.997C144.045 209.62 132.082 212 120 212C107.918 212 95.955 209.62 84.7931 204.997C73.6311 200.373 63.4891 193.597 54.9461 185.054C46.4032 176.511 39.6265 166.369 35.0031 155.207C30.3796 144.045 28 132.082 28 120C28 107.918 30.3797 95.955 35.0031 84.7931C39.6265 73.6311 46.4032 63.4891 54.9462 54.9461C63.4892 46.4032 73.6312 39.6265 84.7932 35.0031C95.9551 30.3796 107.918 28 120 28L120 28Z" stroke="#F2F4F7" stroke-width="16" stroke-linecap="round" stroke-linejoin="round"/>
<path d="M120 28C138.791 28 157.132 33.7544 172.556 44.4892C187.979 55.224 199.746 70.4243 206.272 88.0459C212.799 105.668 213.773 124.865 209.064 143.057C204.354 161.249 194.187 177.562 179.929 189.803C165.672 202.044 148.008 209.625 129.313 211.527C110.618 213.43 91.7887 209.561 75.3578 200.443C58.9269 191.325 45.6823 177.393 37.4053 160.523C29.1282 143.653 26.2158 124.652 29.0596 106.077" stroke="#7F56D9" stroke-width="16" stroke-linecap="round" stroke-linejoin="round"/>
<path d="M120 48C129.455 48 138.818 49.8623 147.553 53.4807C156.289 57.099 164.226 62.4025 170.912 69.0883C177.598 75.7741 182.901 83.7114 186.519 92.4468C190.138 101.182 192 110.545 192 120C192 129.455 190.138 138.818 186.519 147.553C182.901 156.289 177.597 164.226 170.912 170.912C164.226 177.598 156.289 182.901 147.553 186.519C138.818 190.138 129.455 192 120 192C110.545 192 101.182 190.138 92.4468 186.519C83.7113 182.901 75.7741 177.597 69.0883 170.912C62.4025 164.226 57.099 156.289 53.4807 147.553C49.8623 138.818 48 129.455 48 120C48 110.545 49.8623 101.182 53.4807 92.4468C57.099 83.7113 62.4025 75.7741 69.0883 69.0883C75.7742 62.4025 83.7114 57.099 92.4468 53.4807C101.182 49.8623 110.545 48 120 48L120 48Z" stroke="#F2F4F7" stroke-width="16" stroke-linecap="round" stroke-linejoin="round"/>
<path d="M120 48C132.526 48 144.835 51.2678 155.712 57.4807C166.588 63.6936 175.656 72.6365 182.019 83.4261C188.382 94.2156 191.82 106.478 191.993 119.003C192.167 131.528 189.069 143.881 183.008 154.843C176.946 165.805 168.129 174.995 157.429 181.507C146.729 188.018 134.514 191.626 121.993 191.972C109.472 192.319 97.0771 189.393 86.0326 183.484C74.9882 177.575 65.6765 168.886 59.0174 158.277" stroke="#B692F6" stroke-width="16" stroke-linecap="round" stroke-linejoin="round"/>
<path d="M80.5597 104H78.9291L82.5931 93.8182H84.368L88.032 104H86.4014L83.5228 95.6676H83.4433L80.5597 104ZM80.8332 100.013H86.123V101.305H80.8332V100.013ZM92.4767 104.154C91.7375 104.154 91.1012 103.987 90.5676 103.652C90.0373 103.314 89.6296 102.848 89.3445 102.255C89.0595 101.662 88.917 100.982 88.917 100.217C88.917 99.4411 89.0628 98.7566 89.3545 98.1634C89.6462 97.5668 90.0571 97.1011 90.5874 96.7663C91.1177 96.4316 91.7425 96.2642 92.4617 96.2642C93.0418 96.2642 93.5588 96.3719 94.0129 96.5874C94.4669 96.7995 94.8332 97.0978 95.1116 97.4822C95.3933 97.8667 95.5607 98.3158 95.6137 98.8295H94.167C94.0874 98.4716 93.9052 98.1634 93.6201 97.9048C93.3384 97.6463 92.9606 97.517 92.4866 97.517C92.0723 97.517 91.7094 97.6264 91.3978 97.8452C91.0896 98.0606 90.8493 98.3688 90.6769 98.7699C90.5046 99.1676 90.4184 99.6383 90.4184 100.182C90.4184 100.739 90.5029 101.219 90.672 101.624C90.841 102.028 91.0796 102.341 91.3879 102.563C91.6994 102.785 92.0657 102.896 92.4866 102.896C92.7683 102.896 93.0235 102.845 93.2522 102.742C93.4842 102.636 93.6781 102.485 93.8339 102.29C93.993 102.094 94.104 101.859 94.167 101.584H95.6137C95.5607 102.078 95.3999 102.518 95.1315 102.906C94.863 103.294 94.5034 103.599 94.0526 103.821C93.6052 104.043 93.0799 104.154 92.4767 104.154ZM100.768 96.3636V97.5568H96.5969V96.3636H100.768ZM97.7155 94.5341H99.202V101.758C99.202 102.046 99.2451 102.263 99.3312 102.409C99.4174 102.552 99.5284 102.649 99.6643 102.702C99.8035 102.752 99.9543 102.777 100.117 102.777C100.236 102.777 100.34 102.769 100.43 102.752C100.519 102.736 100.589 102.722 100.639 102.712L100.907 103.94C100.821 103.973 100.698 104.007 100.539 104.04C100.38 104.076 100.181 104.096 99.9427 104.099C99.5516 104.106 99.1871 104.036 98.849 103.891C98.5109 103.745 98.2375 103.519 98.0287 103.214C97.8199 102.91 97.7155 102.527 97.7155 102.066V94.5341ZM102.412 104V96.3636H103.899V104H102.412ZM103.163 95.1854C102.905 95.1854 102.682 95.0992 102.497 94.9268C102.315 94.7512 102.223 94.5424 102.223 94.3004C102.223 94.0552 102.315 93.8464 102.497 93.674C102.682 93.4983 102.905 93.4105 103.163 93.4105C103.422 93.4105 103.642 93.4983 103.824 93.674C104.01 93.8464 104.103 94.0552 104.103 94.3004C104.103 94.5424 104.01 94.7512 103.824 94.9268C103.642 95.0992 103.422 95.1854 103.163 95.1854ZM112.431 96.3636L109.662 104H108.071L105.297 96.3636H106.893L108.827 102.24H108.907L110.835 96.3636H112.431ZM116.86 104.154C116.107 104.154 115.459 103.993 114.916 103.672C114.376 103.347 113.958 102.891 113.663 102.305C113.371 101.715 113.226 101.024 113.226 100.232C113.226 99.4493 113.371 98.7599 113.663 98.1634C113.958 97.5668 114.369 97.1011 114.896 96.7663C115.426 96.4316 116.046 96.2642 116.755 96.2642C117.186 96.2642 117.604 96.3355 118.008 96.478C118.413 96.6205 118.776 96.8442 119.097 97.1491C119.419 97.4541 119.672 97.8501 119.858 98.3374C120.043 98.8213 120.136 99.4096 120.136 100.102V100.629H114.066V99.5156H118.679C118.679 99.1245 118.6 98.7782 118.441 98.4766C118.282 98.1716 118.058 97.9313 117.77 97.7557C117.485 97.58 117.15 97.4922 116.765 97.4922C116.348 97.4922 115.983 97.5949 115.672 97.8004C115.363 98.0026 115.125 98.2678 114.956 98.5959C114.79 98.9207 114.707 99.2737 114.707 99.6548V100.525C114.707 101.035 114.797 101.469 114.976 101.827C115.158 102.185 115.411 102.459 115.736 102.648C116.061 102.833 116.441 102.926 116.875 102.926C117.156 102.926 117.413 102.886 117.645 102.807C117.877 102.724 118.078 102.601 118.247 102.439C118.416 102.277 118.545 102.076 118.635 101.837L120.042 102.091C119.929 102.505 119.727 102.868 119.435 103.18C119.147 103.488 118.784 103.728 118.346 103.901C117.912 104.07 117.417 104.154 116.86 104.154ZM130.328 100.833V96.3636H131.819V104H130.358V102.678H130.278C130.102 103.085 129.821 103.425 129.433 103.697C129.049 103.965 128.57 104.099 127.996 104.099C127.506 104.099 127.071 103.992 126.694 103.776C126.319 103.558 126.024 103.234 125.809 102.807C125.597 102.379 125.491 101.851 125.491 101.221V96.3636H126.977V101.042C126.977 101.562 127.121 101.977 127.41 102.285C127.698 102.593 128.072 102.747 128.533 102.747C128.812 102.747 129.088 102.678 129.363 102.538C129.642 102.399 129.872 102.189 130.054 101.907C130.24 101.625 130.331 101.267 130.328 100.833ZM139.539 98.228L138.192 98.4666C138.135 98.2943 138.046 98.1302 137.923 97.9744C137.804 97.8187 137.641 97.6911 137.436 97.5916C137.23 97.4922 136.974 97.4425 136.665 97.4425C136.244 97.4425 135.893 97.5369 135.611 97.7259C135.33 97.9115 135.189 98.1518 135.189 98.4467C135.189 98.7019 135.283 98.9074 135.472 99.0632C135.661 99.219 135.966 99.3466 136.387 99.446L137.6 99.7244C138.303 99.8868 138.826 100.137 139.171 100.475C139.516 100.813 139.688 101.252 139.688 101.793C139.688 102.25 139.556 102.658 139.29 103.016C139.029 103.37 138.662 103.649 138.192 103.851C137.724 104.053 137.182 104.154 136.566 104.154C135.711 104.154 135.013 103.972 134.473 103.607C133.933 103.239 133.601 102.717 133.479 102.041L134.915 101.822C135.005 102.197 135.189 102.48 135.467 102.673C135.746 102.862 136.109 102.956 136.556 102.956C137.043 102.956 137.433 102.855 137.724 102.653C138.016 102.447 138.162 102.197 138.162 101.902C138.162 101.663 138.072 101.463 137.893 101.3C137.718 101.138 137.448 101.015 137.083 100.933L135.79 100.649C135.078 100.487 134.551 100.228 134.209 99.8736C133.871 99.5189 133.702 99.0698 133.702 98.5263C133.702 98.0755 133.828 97.6811 134.08 97.343C134.332 97.005 134.68 96.7415 135.124 96.5526C135.568 96.3603 136.077 96.2642 136.65 96.2642C137.476 96.2642 138.125 96.4432 138.599 96.8011C139.073 97.1558 139.387 97.6314 139.539 98.228ZM144.614 104.154C143.861 104.154 143.213 103.993 142.67 103.672C142.13 103.347 141.712 102.891 141.417 102.305C141.125 101.715 140.979 101.024 140.979 100.232C140.979 99.4493 141.125 98.7599 141.417 98.1634C141.712 97.5668 142.123 97.1011 142.65 96.7663C143.18 96.4316 143.8 96.2642 144.509 96.2642C144.94 96.2642 145.358 96.3355 145.762 96.478C146.167 96.6205 146.529 96.8442 146.851 97.1491C147.172 97.4541 147.426 97.8501 147.612 98.3374C147.797 98.8213 147.89 99.4096 147.89 100.102V100.629H141.82V99.5156H146.433C146.433 99.1245 146.354 98.7782 146.195 98.4766C146.036 98.1716 145.812 97.9313 145.524 97.7557C145.238 97.58 144.904 97.4922 144.519 97.4922C144.102 97.4922 143.737 97.5949 143.426 97.8004C143.117 98.0026 142.879 98.2678 142.71 98.5959C142.544 98.9207 142.461 99.2737 142.461 99.6548V100.525C142.461 101.035 142.551 101.469 142.729 101.827C142.912 102.185 143.165 102.459 143.49 102.648C143.815 102.833 144.194 102.926 144.629 102.926C144.91 102.926 145.167 102.886 145.399 102.807C145.631 102.724 145.832 102.601 146.001 102.439C146.17 102.277 146.299 102.076 146.389 101.837L147.796 102.091C147.683 102.505 147.481 102.868 147.189 103.18C146.901 103.488 146.538 103.728 146.1 103.901C145.666 104.07 145.171 104.154 144.614 104.154ZM149.539 104V96.3636H150.976V97.5767H151.056C151.195 97.1657 151.44 96.8426 151.791 96.6072C152.146 96.3686 152.547 96.2493 152.995 96.2493C153.087 96.2493 153.197 96.2526 153.323 96.2592C153.452 96.2659 153.553 96.2741 153.626 96.2841V97.706C153.566 97.6894 153.46 97.6712 153.308 97.6513C153.155 97.6281 153.003 97.6165 152.85 97.6165C152.499 97.6165 152.186 97.6911 151.911 97.8402C151.639 97.986 151.424 98.1899 151.264 98.4517C151.105 98.7102 151.026 99.0052 151.026 99.3366V104H149.539ZM160.635 98.228L159.287 98.4666C159.231 98.2943 159.142 98.1302 159.019 97.9744C158.9 97.8187 158.737 97.6911 158.532 97.5916C158.326 97.4922 158.069 97.4425 157.761 97.4425C157.34 97.4425 156.989 97.5369 156.707 97.7259C156.425 97.9115 156.285 98.1518 156.285 98.4467C156.285 98.7019 156.379 98.9074 156.568 99.0632C156.757 99.219 157.062 99.3466 157.483 99.446L158.696 99.7244C159.398 99.8868 159.922 100.137 160.267 100.475C160.611 100.813 160.784 101.252 160.784 101.793C160.784 102.25 160.651 102.658 160.386 103.016C160.124 103.37 159.758 103.649 159.287 103.851C158.82 104.053 158.278 104.154 157.662 104.154C156.807 104.154 156.109 103.972 155.569 103.607C155.028 103.239 154.697 102.717 154.574 102.041L156.011 101.822C156.101 102.197 156.285 102.48 156.563 102.673C156.841 102.862 157.204 102.956 157.652 102.956C158.139 102.956 158.528 102.855 158.82 102.653C159.112 102.447 159.258 102.197 159.258 101.902C159.258 101.663 159.168 101.463 158.989 101.3C158.813 101.138 158.543 101.015 158.179 100.933L156.886 100.649C156.174 100.487 155.647 100.228 155.305 99.8736C154.967 99.5189 154.798 99.0698 154.798 98.5263C154.798 98.0755 154.924 97.6811 155.176 97.343C155.428 97.005 155.776 96.7415 156.22 96.5526C156.664 96.3603 157.173 96.2642 157.746 96.2642C158.571 96.2642 159.221 96.4432 159.695 96.8011C160.169 97.1558 160.482 97.6314 160.635 98.228Z" fill="#475467"/>
<path d="M90.1931 119.182V141H86.2407V123.028H86.1128L81.0099 126.288V122.665L86.4324 119.182H90.1931ZM99.102 138.017L98.9635 139.189C98.8641 140.084 98.6865 140.993 98.4308 141.916C98.1823 142.847 97.9195 143.702 97.6425 144.484C97.3655 145.265 97.1418 145.879 96.9713 146.327H94.3719C94.4713 145.893 94.6063 145.304 94.7767 144.558C94.9543 143.813 95.1247 142.974 95.2881 142.044C95.4514 141.114 95.5615 140.169 95.6183 139.21L95.6929 138.017H99.102ZM110.594 141.415C108.84 141.415 107.334 140.972 106.077 140.084C104.827 139.189 103.865 137.9 103.19 136.217C102.523 134.526 102.189 132.491 102.189 130.112C102.196 127.733 102.533 125.709 103.201 124.04C103.876 122.364 104.838 121.085 106.088 120.205C107.345 119.324 108.847 118.884 110.594 118.884C112.342 118.884 113.844 119.324 115.101 120.205C116.358 121.085 117.32 122.364 117.988 124.04C118.663 125.716 119 127.74 119 130.112C119 132.499 118.663 134.537 117.988 136.227C117.32 137.911 116.358 139.196 115.101 140.084C113.851 140.972 112.349 141.415 110.594 141.415ZM110.594 138.081C111.958 138.081 113.034 137.41 113.822 136.067C114.618 134.718 115.016 132.733 115.016 130.112C115.016 128.379 114.834 126.923 114.472 125.744C114.11 124.565 113.599 123.678 112.938 123.081C112.278 122.477 111.496 122.175 110.594 122.175C109.238 122.175 108.165 122.85 107.377 124.2C106.589 125.542 106.191 127.513 106.184 130.112C106.177 131.852 106.351 133.315 106.706 134.501C107.068 135.687 107.579 136.582 108.24 137.186C108.9 137.783 109.685 138.081 110.594 138.081ZM130.604 141.415C128.85 141.415 127.344 140.972 126.087 140.084C124.837 139.189 123.875 137.9 123.2 136.217C122.532 134.526 122.199 132.491 122.199 130.112C122.206 127.733 122.543 125.709 123.211 124.04C123.885 122.364 124.848 121.085 126.098 120.205C127.355 119.324 128.857 118.884 130.604 118.884C132.351 118.884 133.853 119.324 135.111 120.205C136.368 121.085 137.33 122.364 137.998 124.04C138.672 125.716 139.01 127.74 139.01 130.112C139.01 132.499 138.672 134.537 137.998 136.227C137.33 137.911 136.368 139.196 135.111 140.084C133.861 140.972 132.358 141.415 130.604 141.415ZM130.604 138.081C131.968 138.081 133.044 137.41 133.832 136.067C134.628 134.718 135.025 132.733 135.025 130.112C135.025 128.379 134.844 126.923 134.482 125.744C134.12 124.565 133.608 123.678 132.948 123.081C132.287 122.477 131.506 122.175 130.604 122.175C129.248 122.175 128.175 122.85 127.387 124.2C126.598 125.542 126.201 127.513 126.194 130.112C126.187 131.852 126.361 133.315 126.716 134.501C127.078 135.687 127.589 136.582 128.25 137.186C128.91 137.783 129.695 138.081 130.604 138.081ZM150.614 141.415C148.86 141.415 147.354 140.972 146.097 140.084C144.847 139.189 143.884 137.9 143.21 136.217C142.542 134.526 142.208 132.491 142.208 130.112C142.215 127.733 142.553 125.709 143.22 124.04C143.895 122.364 144.858 121.085 146.108 120.205C147.365 119.324 148.867 118.884 150.614 118.884C152.361 118.884 153.863 119.324 155.12 120.205C156.377 121.085 157.34 122.364 158.007 124.04C158.682 125.716 159.019 127.74 159.019 130.112C159.019 132.499 158.682 134.537 158.007 136.227C157.34 137.911 156.377 139.196 155.12 140.084C153.87 140.972 152.368 141.415 150.614 141.415ZM150.614 138.081C151.978 138.081 153.054 137.41 153.842 136.067C154.637 134.718 155.035 132.733 155.035 130.112C155.035 128.379 154.854 126.923 154.492 125.744C154.13 124.565 153.618 123.678 152.958 123.081C152.297 122.477 151.516 122.175 150.614 122.175C149.257 122.175 148.185 122.85 147.397 124.2C146.608 125.542 146.21 127.513 146.203 130.112C146.196 131.852 146.37 133.315 146.725 134.501C147.088 135.687 147.599 136.582 148.259 137.186C148.92 137.783 149.705 138.081 150.614 138.081Z" fill="#101828"/>
</svg>
